<svg xmlns="http://www.w3.org/2000/svg" viewBox="0 0 24 24" aria-hidden="true">
  <path
    fill="#ff00aa"
    d="M8.69 3.5C4.88 3.5 1.8 6.13 1.8 9.38c0 1.72.92 3.27 2.38 4.28l-.62 2.34 2.54-.78c.77.21 1.58.33 2.42.33.12 0 .24 0 .36-.02-.24-.84-.36-1.71-.36-2.6 0-3.98 3.74-7.2 8.36-7.2.47 0 .93.04 1.38.11C17.4 4.66 13.35 3.5 8.69 3.5zm-3.24 4.9a1.28 1.28 0 1 1 0-2.56 1.28 1.28 0 0 1 0 2.56zm6.48 0a1.28 1.28 0 1 1 0-2.56 1.28 1.28 0 0 1 0 2.56z"
  />
  <path
    fill="#ff00aa"
    d="M15.31 8.7c-4.2 0-7.61 2.86-7.61 6.4 0 1.55.83 2.95 2.15 3.86l-.56 2.1 2.28-.7c.69.19 1.42.3 2.17.3 4.2 0 7.61-2.86 7.61-6.4S19.51 8.7 15.31 8.7zm-2.91 3.67a1.07 1.07 0 1 1 0-2.14 1.07 1.07 0 0 1 0 2.14zm5.82 0a1.07 1.07 0 1 1 0-2.14 1.07 1.07 0 0 1 0 2.14z"
  />
</svg>
